<svg id="a4bebaef-c4d4-4f09-bfbb-7c71c507020d" data-name="Layer 5" xmlns="http://www.w3.org/2000/svg" width="560" height="400" viewBox="0 0 560 400">
  <path d="M329,173s-6.73,8.51-16.43,8.51-28.34-14.3-28.34-14.3,9.32-8.14,21.74-8.65C323.2,157.86,329,173,329,173Z"/>
  <path d="M360.85,173.89s6.91,9,16.87,9,29.08-15.18,29.08-15.18-9.57-8.64-22.31-9.17C366.81,157.82,360.85,173.89,360.85,173.89Z"/>
  <path d="M425.81,164.31c0-22-23.31-35.73-37.08-29.51-21.88,9.89-32.55-8.6-32.55,8.94" fill="none" stroke="#000" stroke-miterlimit="10" stroke-width="0.25"/>
  <path d="M266.6,167c-3.73-21.72,14.09-32.85,29-30.95,25.72,3.3,33.43-5.49,33.43,9.89" fill="none" stroke="#000" stroke-miterlimit="10" stroke-width="0.25"/>
  <path d="M.52,160.29c61.5,0,131.72,51.72,160,80" fill="none" stroke="#000" stroke-miterlimit="10" stroke-width="0.25"/>
  <path d="M512.56,154.67c-19.07,1.7-98.67,45.62-86.75,9.64,0,0,3.3-9.07,4.94-27.19s-4-50.91-7.25-57.5-30.24-17.49-75.15-17.49-79.23,13.44-79.23,13.44-7.71,34.76-8.53,49.18,3.71,22,4.53,31c.28,3,.83,6.93,1.48,11.26,1.29,8.64,2.95,18.82,3.5,26.06.82,10.87,5.79,26.71,13.62,40.93s15.19,21.2,15.19,21.2c19.11,21.57,37.59,36.47,50.68,38.08,20.33,2.51-3.82,12.73,27.84-4.09,70.64-37.53,40-40,0,0-54.93,54.93-96.91,71.11-216.91-48.89" fill="none" stroke="#000" stroke-miterlimit="10" stroke-width="0.25"/>
  <path d="M550.89,161.2c-42.83,0-26.72-7.57-38.33-6.53" fill="none" stroke="#000" stroke-miterlimit="10" stroke-width="0.25"/>
</svg>
